<svg width="16" height="16" viewBox="0 0 16 16" fill="none" xmlns="http://www.w3.org/2000/svg">
<path d="M2.81322 5.64644C2.90697 5.55281 3.03405 5.50022 3.16655 5.50022C3.29905 5.50022 3.42614 5.55281 3.51989 5.64644L7.99989 10.1264L12.4799 5.64644C12.5257 5.59732 12.5809 5.55792 12.6422 5.53059C12.7035 5.50326 12.7697 5.48857 12.8369 5.48738C12.904 5.4862 12.9707 5.49855 13.033 5.5237C13.0952 5.54884 13.1518 5.58627 13.1992 5.63375C13.2467 5.68123 13.2842 5.73779 13.3093 5.80005C13.3344 5.8623 13.3468 5.92899 13.3456 5.99613C13.3444 6.06326 13.3297 6.12947 13.3024 6.1908C13.2751 6.25214 13.2357 6.30734 13.1866 6.35311L8.35322 11.1864C8.25947 11.2801 8.13239 11.3327 7.99989 11.3327C7.86739 11.3327 7.7403 11.2801 7.64655 11.1864L2.81322 6.35311C2.71959 6.25936 2.66699 6.13228 2.66699 5.99978C2.66699 5.86728 2.71959 5.74019 2.81322 5.64644Z" fill="white"/>
</svg>
