<svg width="16" height="16" viewBox="0 0 16 16" fill="none" xmlns="http://www.w3.org/2000/svg">
<path d="M2.93136 3.03629L2.98002 2.98029C3.06468 2.89561 3.17692 2.84412 3.29632 2.83519C3.41573 2.82626 3.53438 2.86048 3.63069 2.93162L3.68669 2.98029L8.00002 7.29295L12.3134 2.97962C12.3595 2.93189 12.4147 2.89382 12.4757 2.86765C12.5367 2.84147 12.6023 2.82771 12.6687 2.82717C12.7351 2.82662 12.801 2.8393 12.8624 2.86447C12.9238 2.88964 12.9796 2.92679 13.0266 2.97376C13.0735 3.02073 13.1106 3.07657 13.1357 3.13803C13.1608 3.19949 13.1734 3.26534 13.1728 3.33173C13.1722 3.39812 13.1584 3.46372 13.1321 3.52471C13.1059 3.5857 13.0678 3.64085 13.02 3.68695L8.70736 8.00029L13.0207 12.3136C13.1053 12.3984 13.1566 12.5106 13.1654 12.63C13.1742 12.7494 13.1399 12.868 13.0687 12.9643L13.02 13.0203C12.9354 13.105 12.8231 13.1565 12.7037 13.1654C12.5843 13.1743 12.4657 13.1401 12.3694 13.069L12.3134 13.0203L8.00002 8.70762L3.68669 13.021C3.59235 13.112 3.46602 13.1623 3.33492 13.1611C3.20382 13.1599 3.07844 13.1073 2.98578 13.0145C2.89312 12.9218 2.8406 12.7964 2.83952 12.6653C2.83844 12.5342 2.8889 12.4079 2.98002 12.3136L7.29269 8.00029L2.97936 3.68695C2.89478 3.60221 2.84342 3.48993 2.83461 3.37053C2.8258 3.25112 2.86013 3.13252 2.93136 3.03629L2.98002 2.98029L2.93136 3.03629Z" fill="white"/>
</svg>
